<svg version="1.1" id="Layer_1" xmlns="http://www.w3.org/2000/svg" xmlns:xlink="http://www.w3.org/1999/xlink" x="0px" y="0px"
	 width="100%" viewBox="0 0 1024 560" enable-background="new 0 0 1024 560" xml:space="preserve">
<path fill="#000000" opacity="1.000000" stroke="none" 
	d="
M486.465393,329.460022 
	C470.648926,347.379791 452.664001,362.579071 435.842438,378.966309 
	C418.472321,395.888031 402.464233,413.967133 389.672607,434.597809 
	C385.175781,441.850372 374.108276,443.222046 368.093445,439.164856 
	C368.506073,435.426575 370.967957,432.593719 372.894928,429.565582 
	C391.471619,400.373505 414.925720,375.426849 440.250916,352.079315 
	C457.403351,336.266296 474.428406,320.304871 488.765198,301.763702 
	C493.377106,295.799347 497.245178,289.398193 500.073242,282.403809 
	C505.547791,268.864258 502.440521,257.139008 490.781006,248.308548 
	C480.751099,240.712280 469.440582,235.322433 457.947388,230.400421 
	C436.197510,221.085892 414.440308,211.823975 394.030884,199.713486 
	C383.428650,193.422348 373.451630,186.206635 362.981842,178.886642 
	C361.430511,182.694412 362.895599,186.130463 363.527435,189.280762 
	C369.670013,219.906616 381.902252,247.689804 403.383667,270.777527 
	C414.993347,283.255402 428.795044,292.977112 444.898956,298.711487 
	C452.276093,301.338379 455.610016,307.208984 460.315796,313.044800 
	C454.215729,317.085022 448.104614,317.196625 441.760559,314.862335 
	C419.357208,306.619080 400.540558,293.293518 385.427094,274.806519 
	C363.429169,247.898285 351.179077,216.893921 346.513550,182.625870 
	C345.677277,176.483292 345.642792,170.345917 345.285828,164.209015 
	C345.046906,160.102036 345.891235,156.034683 350.156433,154.054550 
	C354.124390,152.212479 357.617493,153.714279 360.738922,156.348877 
	C389.182953,180.356796 421.519073,197.677933 455.740997,211.803345 
	C470.228394,217.783127 484.494446,224.271484 497.535309,233.087067 
	C509.580261,241.229431 517.615479,252.050735 518.695007,267.005493 
	C519.317383,275.625793 517.379883,283.873016 513.849792,291.738647 
	C507.401367,306.106873 497.226166,317.780304 486.465393,329.460022 
z"/>
<path fill="#000000" opacity="1.000000" stroke="none" 
	d="
M609.666504,267.788513 
	C612.265015,255.672806 614.564331,243.960678 619.647400,232.930130 
	C627.194519,216.552521 638.221558,203.446045 653.820312,194.451675 
	C653.509216,192.900635 652.292175,192.742935 651.457458,192.594986 
	C645.957153,191.620132 641.937439,188.544235 637.965942,184.701172 
	C624.729309,171.892670 605.289856,170.258148 588.015198,179.908356 
	C576.935303,186.097992 568.752686,195.116928 562.204285,205.797653 
	C556.876526,214.487381 551.085571,216.548096 540.529785,213.407074 
	C540.573853,212.813095 540.446655,212.097061 540.693420,211.549637 
	C552.953857,184.353226 571.027344,163.683517 602.087830,158.356644 
	C621.896606,154.959442 638.535522,161.962112 652.338928,175.907028 
	C656.501709,180.112457 660.754089,182.890869 666.692078,183.841171 
	C675.260315,185.212448 686.545227,191.782059 688.041809,198.580292 
	C686.912048,200.813812 684.492249,200.790176 682.518494,201.221954 
	C651.742981,207.954514 635.080811,228.101440 628.184021,257.806671 
	C623.860779,276.427612 620.581482,295.372131 612.427002,312.897675 
	C591.551697,357.762726 556.618347,383.918732 507.711548,391.370331 
	C493.701416,393.504974 479.598816,394.595367 465.420746,394.230743 
	C461.687897,394.134705 459.272369,395.598572 457.061523,398.548981 
	C449.298309,408.908966 443.820099,420.480957 438.548431,432.191742 
	C435.103149,439.845184 430.474701,442.322571 422.238708,441.317230 
	C419.436707,440.975189 418.249878,439.845673 419.297638,437.046875 
	C426.936279,416.642242 436.417542,397.267883 450.914886,380.715027 
	C453.355652,377.928162 456.662323,377.642212 460.078979,377.707703 
	C475.913177,378.011200 491.692230,377.391144 507.347107,374.788940 
	C551.173279,367.504120 581.538330,343.068939 599.250916,302.568817 
	C604.075745,291.536682 607.035095,279.924835 609.666504,267.788513 
z"/>
<path fill="#000000" opacity="1.000000" stroke="none" 
	d="
M455.173096,165.804718 
	C473.321350,181.517960 491.779022,196.292557 510.401306,210.861664 
	C516.522217,215.650330 522.164429,220.724152 524.263123,228.608444 
	C524.596558,229.861252 525.425171,231.064316 524.520325,232.843643 
	C519.640564,233.905563 514.556702,233.982315 509.816132,231.506897 
	C489.449890,220.872192 468.784943,210.594131 450.444977,196.666000 
	C433.261780,183.616394 426.836304,165.281921 427.673126,144.252380 
	C428.099060,143.881195 428.524963,143.509995 428.950867,143.138809 
	C437.600281,150.618927 446.249695,158.099045 455.173096,165.804718 
z"/>
<path fill="#000000" opacity="1.000000" stroke="none" 
	d="
M604.889587,187.636932 
	C607.374634,185.961807 609.768921,185.386276 612.312805,185.785446 
	C617.174194,186.548264 619.923767,189.568390 620.751099,194.299042 
	C621.526123,198.730743 619.769531,202.260422 615.847229,204.209793 
	C611.718018,206.261978 607.402222,206.189590 603.903931,202.706787 
	C600.673523,199.490753 599.712769,195.592758 601.846985,191.355896 
	C602.497437,190.064621 603.644592,189.023529 604.889587,187.636932 
z"/>
</svg>