<svg version="1.1" id="Layer_1" xmlns="http://www.w3.org/2000/svg" xmlns:xlink="http://www.w3.org/1999/xlink" x="0px" y="0px"
	 width="100%" viewBox="0 0 1024 560" enable-background="new 0 0 1024 560" xml:space="preserve">
<path fill="#000000" opacity="1.000000" stroke="none" 
	d="
M511.000000,420.933105 
	C496.667999,420.926178 482.835785,420.958771 469.004028,420.899536 
	C454.299133,420.836548 446.866486,413.360413 446.849731,398.686920 
	C446.826294,378.188782 446.709595,357.689453 446.914948,337.193451 
	C446.961487,332.548584 445.459747,331.148590 440.890442,331.278168 
	C430.566498,331.570923 420.228088,331.400940 409.895966,331.344513 
	C399.967285,331.290344 393.643646,326.010345 393.121002,316.026459 
	C392.520660,304.559814 392.558777,293.022736 393.048920,281.547394 
	C393.463074,271.851013 400.314270,266.002594 410.356537,265.863983 
	C420.520386,265.723694 430.695282,265.588867 440.850006,265.920258 
	C445.811401,266.082153 447.018494,264.235474 446.976807,259.566284 
	C446.764191,235.736847 446.829590,211.904739 446.835785,188.073578 
	C446.839996,171.777191 454.453064,164.107132 470.635895,164.094894 
	C499.466614,164.073105 528.299377,164.289948 557.127014,163.988586 
	C568.405701,163.870682 580.458008,170.554489 579.468872,186.156525 
	C579.153076,191.136551 579.546570,196.158234 579.346375,201.150055 
	C579.206360,204.639969 580.575623,205.831192 584.019531,205.782822 
	C594.516479,205.635406 605.016968,205.713837 615.515930,205.738205 
	C627.011536,205.764862 633.110474,210.894302 633.619202,222.404938 
	C634.118347,233.697830 633.758362,245.050674 633.285339,256.356720 
	C632.979492,263.664337 626.832703,268.781830 619.259521,269.408081 
	C607.927856,270.345123 596.608582,269.629700 585.294434,269.326691 
	C580.681396,269.203156 579.140259,270.656982 579.332031,275.308319 
	C579.672729,283.570007 579.427734,291.855835 579.427734,301.188568 
	C582.406921,298.827454 584.324036,297.039734 586.490112,295.636139 
	C598.202393,288.046814 613.731079,290.153198 623.409424,300.545990 
	C632.385315,310.184418 633.001099,326.584259 624.796875,337.494263 
	C616.625488,348.360596 601.613586,351.940979 589.365845,345.944733 
	C582.123596,342.399048 580.049805,343.818756 579.872803,352.096405 
	C579.509583,369.081635 580.435730,386.074768 579.443848,403.056671 
	C578.841370,413.373047 571.704590,420.499481 561.473694,420.596985 
	C544.816223,420.755737 528.157959,420.825134 511.000000,420.933105 
M489.809265,184.228363 
	C487.424591,183.523590 485.313812,182.039520 484.750061,179.768784 
	C483.418121,174.403778 479.780975,173.836700 475.261688,174.292801 
	C473.446686,174.475998 471.598114,174.321335 469.764862,174.329926 
	C460.463409,174.373520 456.362610,178.400162 456.346710,187.731094 
	C456.305542,211.897003 456.425598,236.063797 456.237305,260.228302 
	C456.203125,264.616150 457.519012,266.042145 461.921509,265.934784 
	C473.081390,265.662750 484.253052,265.733856 495.418060,265.850952 
	C505.073853,265.952179 512.050598,271.993439 512.233521,280.738556 
	C512.487915,292.899567 512.442078,305.071899 512.252930,317.235168 
	C512.141907,324.375885 506.488281,330.368317 499.636078,331.261963 
	C492.258759,332.224152 492.257904,332.224182 492.225433,339.831635 
	C492.220459,340.998230 492.257935,342.165802 492.221649,343.331268 
	C492.160614,345.292267 492.670258,347.643250 490.466888,348.673950 
	C488.453369,349.615906 487.100739,347.726257 485.693542,346.672089 
	C479.825684,342.276245 473.946899,337.890198 468.203003,333.335510 
	C465.096802,330.872406 461.514099,330.704681 458.253784,331.764069 
	C454.946198,332.838776 456.413574,336.383392 456.391632,338.840576 
	C456.263733,353.172394 456.301849,367.505951 456.333771,381.838806 
	C456.349945,389.110413 458.208557,390.952026 465.555237,390.968445 
	C480.221375,391.001251 494.887665,390.978363 509.553894,390.973267 
	C527.053345,390.967163 544.553162,390.897552 562.052124,390.986816 
	C566.479858,391.009430 570.166443,389.527008 570.358093,384.974640 
	C570.813232,374.163849 570.562317,363.322418 570.532532,352.493561 
	C570.529297,351.327911 570.067566,350.140594 568.759644,349.732544 
	C567.354980,349.294312 566.509277,350.239105 565.958740,351.275635 
	C564.183228,354.618744 561.429565,354.862946 558.279053,353.800751 
	C555.455322,352.848785 553.843872,353.711761 553.165649,356.666046 
	C552.766785,358.403656 552.075745,361.421967 550.392212,360.849457 
	C543.937683,358.654755 540.545532,360.981506 538.916687,367.102936 
	C538.878967,367.244537 538.711548,367.365509 538.581665,367.466644 
	C535.986389,369.488220 520.628601,364.383728 519.774170,361.218262 
	C518.754761,357.441620 522.976501,347.481140 526.480347,345.591797 
	C539.824463,338.396667 553.177795,331.218719 566.552307,324.080353 
	C568.667542,322.951416 570.675659,321.973785 570.665527,319.053345 
	C570.612671,303.887573 570.612366,288.721497 570.642395,273.555634 
	C570.647339,271.063812 569.425659,269.934723 567.088562,269.643188 
	C563.182556,269.155945 559.688293,269.416931 556.364136,272.231018 
	C550.903564,276.853851 545.084106,281.064880 539.292786,285.280304 
	C535.983459,287.689117 534.052185,286.704132 533.794373,282.616791 
	C533.616394,279.793854 533.606506,276.946136 533.748962,274.120972 
	C533.909546,270.934113 532.415100,269.746643 529.387878,269.361664 
	C519.586731,268.115051 514.774841,262.566956 514.713196,252.599533 
	C514.653442,242.933502 514.673218,233.266708 514.710571,223.600449 
	C514.755737,211.898041 520.880798,205.793167 532.653137,205.743591 
	C543.652649,205.697281 554.653442,205.643417 565.651489,205.775650 
	C569.191589,205.818207 570.886780,204.770706 570.708862,200.937256 
	C570.477356,195.948196 570.805237,190.934525 570.617981,185.941742 
	C570.352234,178.857254 565.824646,174.476791 558.858643,174.334152 
	C555.360229,174.262512 551.855286,174.420227 548.360352,174.288269 
	C545.549561,174.182144 543.697693,174.803406 542.875427,177.959106 
	C541.748352,182.284821 538.574219,184.785065 534.087158,184.803207 
	C519.599365,184.861816 505.101196,185.589996 489.809265,184.228363 
M434.500305,281.928253 
	C427.649048,282.531250 420.565460,280.641266 413.739044,283.104309 
	C414.427277,285.861755 416.084961,285.654053 417.530975,285.654785 
	C440.342285,285.665894 463.153595,285.652069 485.964905,285.638580 
	C487.989655,285.637390 489.981384,285.552338 490.295959,281.928589 
	C471.872406,281.928589 453.686310,281.928589 434.500305,281.928253 
M421.682037,296.298248 
	C419.122803,296.954376 415.766602,294.757324 413.886322,298.110413 
	C414.687164,299.736267 415.919708,299.677429 417.069672,299.678223 
	C440.384247,299.694733 463.698792,299.703949 487.013336,299.677948 
	C488.429932,299.676361 490.195129,299.874542 490.128204,296.298431 
	C467.637848,296.298431 445.134613,296.298431 421.682037,296.298248 
M540.976685,227.313995 
	C539.308350,227.543335 537.140015,226.726257 536.284058,230.778702 
	C562.020203,230.958618 587.405273,231.015182 612.875549,230.038055 
	C612.583252,228.703064 612.196167,227.837738 611.769043,227.817474 
	C588.478577,226.712845 565.172485,227.578278 540.976685,227.313995 
M578.501831,247.530212 
	C579.511780,247.220398 580.614929,246.668442 580.276672,245.531952 
	C579.718384,243.655991 577.873413,244.019852 576.454834,244.014053 
	C564.294922,243.964462 552.134644,243.956985 539.974731,244.002548 
	C538.581055,244.007782 536.872375,243.699142 536.110107,245.888504 
	C536.449585,246.267227 536.833435,247.101395 537.283875,247.139038 
	C550.738403,248.263718 564.219299,247.438828 578.501831,247.530212 
M432.501221,309.970581 
	C426.365143,310.540283 419.983612,308.836609 413.363373,311.387207 
	C417.966644,314.827393 453.175629,314.413361 456.360626,310.888458 
	C448.513672,309.173462 440.951599,310.405212 432.501221,309.970581 
M610.787415,321.861053 
	C615.685425,321.375183 618.433533,318.462219 617.504822,314.336395 
	C616.721802,310.858093 614.775513,308.164551 610.692993,308.587677 
	C606.824951,308.988617 604.297607,313.200684 605.299561,317.135956 
	C605.933716,319.626495 607.646912,321.010803 610.787415,321.861053 
M511.238953,411.434387 
	C512.701233,411.861633 514.211426,412.006042 515.626892,411.447388 
	C518.588684,410.278320 519.934875,407.988068 519.769043,404.830414 
	C519.597046,401.555298 517.657654,399.664276 514.646301,398.975586 
	C511.468414,398.248749 508.940643,399.750061 507.770447,402.539917 
	C506.352356,405.920593 507.183258,409.039642 511.238953,411.434387 
z"/>
</svg>